# File generated by ImageToStl.com - Free Image and 3D model conversion tools

o obj1
v 0.5 0.5 0
v 1 0.5 0
v 1 1 0
v 0.5 1 0
v -1 0.5 0
v -0.5 0.5 0
v -0.5 1 0
v -1 1 0
v 0 0.5 0
v 0 1 0
v -1 -1 0
v -0.5 -1 0
v -0.5 -0.5 0
v -1 -0.5 0
v -0.5 0 0
v -1 0 0
v 0 -1 0
v 0 -0.5 0
v 0.5 -1 0
v 0.5 -0.5 0
v 1 -1 0
v 1 -0.5 0
v 1 0 0
v 0.5 0 0
vn 0 0 1
f 1//1 2//1 3//1
f 1//1 3//1 4//1
f 5//1 6//1 7//1
f 5//1 7//1 8//1
f 6//1 9//1 10//1
f 6//1 10//1 7//1
f 9//1 1//1 4//1
f 9//1 4//1 10//1
f 11//1 12//1 13//1
f 11//1 13//1 14//1
f 14//1 13//1 15//1
f 14//1 15//1 16//1
f 16//1 15//1 6//1
f 16//1 6//1 5//1
f 12//1 17//1 18//1
f 12//1 18//1 13//1
f 17//1 19//1 20//1
f 17//1 20//1 18//1
f 19//1 21//1 22//1
f 19//1 22//1 20//1
f 20//1 22//1 23//1
f 20//1 23//1 24//1
f 24//1 23//1 2//1
f 24//1 2//1 1//1
# Vertices: 24, normals: 1, texture coordinates: 0, faces: 24

