# File generated by ImageToStl.com - Free Image and 3D model conversion tools

o obj1
v 0.5840736 0.5840736 0
v 0.72707003 0.59998 0
v 0.73357928 0.73357928 0
v 0.59998006 0.72707003 0
v 0.86513269 0.61350614 0
v 0.86705941 0.74165481 0
v 0.74165487 0.86705941 0
v 0.61350626 0.86513263 0
v 0.8706466 0.8706466 0
v 0.38511008 0.38511008 0
v 0.5771209 0.4449634 0
v 0.4449634 0.5771209 0
v 0.72753155 0.47052005 0
v 0.86627465 0.48716214 0
v 1.00000012 0.50000006 0
v 1.00000012 0.62500006 0
v 1.00000012 0.75000006 0
v 1.00000012 0.87500006 0
v 1.00000012 1.00000012 0
v 0.87500006 1.00000012 0
v 0.75000006 1.00000012 0
v 0.62500006 1.00000012 0
v 0.48716211 0.8662746 0
v 0.50000006 1.00000012 0
v 0.47052005 0.72753161 0
v -0.86513275 0.61350614 0
v -0.72707003 0.59998006 0
v -0.73357922 0.73357928 0
v -0.86705935 0.74165481 0
v -0.5840736 0.5840736 0
v -0.59998006 0.72707003 0
v -0.74165481 0.86705935 0
v -0.8706466 0.8706466 0
v -0.61350626 0.86513263 0
v -1.00000012 0.50000006 0
v -0.86627465 0.48716211 0
v -1.00000012 0.62500006 0
v -0.72753161 0.47052005 0
v -0.5771209 0.44496343 0
v -0.38511008 0.38511008 0
v -0.4449634 0.5771209 0
v -0.47052008 0.72753155 0
v -0.48716214 0.8662746 0
v -0.50000006 1.00000012 0
v -0.62500006 1.00000012 0
v -0.75000006 1.00000012 0
v -0.87500006 1.00000012 0
v -1.00000012 0.87500006 0
v -1.00000012 1.00000012 0
v -1.00000012 0.75000006 0
v -0.32859424 0.59932292 0
v -0.2205278 0.62933058 0
v -0.23184313 0.75476778 0
v -0.34878644 0.73885477 0
v -0.11101895 0.65068519 0
v -0.11586571 0.76735854 0
v -0.24143778 0.87803501 0
v -0.36335704 0.87128723 0
v -0.12049738 0.88376075 0
v -0.30250442 0.45247209 0
v -0.20818004 0.50259113 0
v -0.10604315 0.533849 0
v 0 0.5446279 0
v 0 0.65847093 0
v 0 0.77231401 0
v 0 0.88615704 0
v 0 1.00000012 0
v -0.12500001 1.00000012 0
v -0.25000003 1.00000012 0
v -0.37500006 1.00000012 0
v 0.11101895 0.65068519 0
v 0.2205278 0.62933052 0
v 0.23184313 0.75476784 0
v 0.11586571 0.76735866 0
v 0.32859424 0.59932286 0
v 0.34878647 0.73885471 0
v 0.24143778 0.87803501 0
v 0.12049738 0.88376075 0
v 0.36335704 0.87128723 0
v 0.10604315 0.533849 0
v 0.20818004 0.50259107 0
v 0.30250445 0.45247209 0
v 0.37500006 1.00000012 0
v 0.25000003 1.00000012 0
v 0.12500001 1.00000012 0
v -0.8706466 -0.87064666 0
v -0.74165487 -0.86705935 0
v -0.73357934 -0.73357928 0
v -0.86705941 -0.74165487 0
v -0.61350614 -0.86513263 0
v -0.59998006 -0.72707003 0
v -0.72706997 -0.59998006 0
v -0.86513269 -0.6135062 0
v -0.5840736 -0.58407354 0
v -1.00000012 -1.00000012 0
v -0.87500006 -1.00000012 0
v -1.00000012 -0.87500006 0
v -0.75000006 -1.00000012 0
v -0.62500006 -1.00000012 0
v -0.50000006 -1.00000012 0
v -0.48716214 -0.86627465 0
v -0.47052005 -0.72753155 0
v -0.4449634 -0.5771209 0
v -0.38511008 -0.38511008 0
v -0.5771209 -0.4449634 0
v -0.72753155 -0.47052005 0
v -0.86627465 -0.48716214 0
v -1.00000012 -0.62500006 0
v -1.00000012 -0.50000006 0
v -1.00000012 -0.75000006 0
v -0.87128723 -0.36335701 0
v -0.73885471 -0.34878644 0
v -0.75476772 -0.23184314 0
v -0.87803495 -0.24143779 0
v -0.59932286 -0.32859424 0
v -0.62933046 -0.22052778 0
v -0.76735854 -0.11586571 0
v -0.88376075 -0.12049738 0
v -0.65068513 -0.11101896 0
v -1.00000012 -0.37500006 0
v -0.45247209 -0.30250442 0
v -0.50259113 -0.20818004 0
v -0.533849 -0.10604315 0
v -0.5446279 0 0
v -0.65847087 -0 0
v -0.77231395 0 0
v -0.88615704 -0 0
v -1.00000012 -0.12500001 0
v -1.00000012 0 0
v -1.00000012 -0.25000003 0
v -0.88376069 0.12049738 0
v -0.76735866 0.11586571 0
v -0.75476778 0.23184313 0
v -0.87803507 0.24143778 0
v -0.65068513 0.11101895 0
v -0.62933052 0.22052778 0
v -0.73885471 0.34878647 0
v -0.87128717 0.36335698 0
v -0.59932292 0.32859427 0
v -1.00000012 0.12500001 0
v -0.533849 0.10604315 0
v -0.50259107 0.20818004 0
v -0.45247209 0.30250445 0
v -1.00000012 0.37500006 0
v -1.00000012 0.25000003 0
v -0.36335698 -0.87128723 0
v -0.24143779 -0.87803501 0
v -0.23184314 -0.75476778 0
v -0.34878644 -0.73885471 0
v -0.12049738 -0.88376075 0
v -0.11586571 -0.7673586 0
v -0.2205278 -0.62933052 0
v -0.32859427 -0.59932286 0
v -0.11101895 -0.65068513 0
v -0.37500006 -1.00000012 0
v -0.25000003 -1.00000012 0
v -0.12500001 -1.00000012 0
v 0 -1.00000012 0
v 0 -0.88615698 0
v 0 -0.77231395 0
v 0 -0.65847087 0
v 0 -0.5446279 0
v -0.10604315 -0.533849 0
v -0.20818004 -0.50259107 0
v -0.30250442 -0.45247209 0
v 0.12049739 -0.88376069 0
v 0.24143778 -0.87803501 0
v 0.23184316 -0.75476778 0
v 0.11586571 -0.76735866 0
v 0.36335698 -0.87128717 0
v 0.34878644 -0.73885465 0
v 0.22052778 -0.62933052 0
v 0.11101895 -0.65068513 0
v 0.32859424 -0.59932286 0
v 0.12500001 -1.00000012 0
v 0.25000003 -1.00000012 0
v 0.37500006 -1.00000012 0
v 0.50000006 -1.00000012 0
v 0.48716214 -0.86627471 0
v 0.47052005 -0.72753155 0
v 0.44496343 -0.5771209 0
v 0.38511008 -0.38511008 0
v 0.30250445 -0.45247209 0
v 0.20818004 -0.50259113 0
v 0.10604315 -0.533849 0
v 0.61350614 -0.86513263 0
v 0.74165481 -0.86705941 0
v 0.73357934 -0.73357934 0
v 0.59998006 -0.72707003 0
v 0.87064654 -0.87064666 0
v 0.86705935 -0.74165481 0
v 0.72707003 -0.59998006 0
v 0.5840736 -0.5840736 0
v 0.86513269 -0.61350626 0
v 0.62500006 -1.00000012 0
v 0.75000006 -1.00000012 0
v 0.87500006 -1.00000012 0
v 1.00000012 -1.00000012 0
v 1.00000012 -0.87500006 0
v 1.00000012 -0.75000006 0
v 1.00000012 -0.62500006 0
v 1.00000012 -0.50000006 0
v 0.86627465 -0.48716214 0
v 0.72753155 -0.47052008 0
v 0.57712096 -0.4449634 0
v 0.59932286 -0.32859424 0
v 0.73885477 -0.34878647 0
v 0.75476778 -0.23184316 0
v 0.62933046 -0.2205278 0
v 0.87128723 -0.36335701 0
v 0.87803495 -0.24143779 0
v 0.7673586 -0.11586571 0
v 0.65068519 -0.11101895 0
v 0.88376069 -0.12049739 0
v 0.45247209 -0.30250442 0
v 1.00000012 -0.37500006 0
v 1.00000012 -0.25000003 0
v 1.00000012 -0.12500001 0
v 1.00000012 0 0
v 0.88615704 0 0
v 0.77231401 0 0
v 0.65847093 0 0
v 0.533849 -0.10604315 0
v 0.5446279 0 0
v 0.50259107 -0.20818004 0
v 0.65068513 0.11101895 0
v 0.76735866 0.11586571 0
v 0.75476778 0.23184313 0
v 0.62933052 0.2205278 0
v 0.88376069 0.12049739 0
v 0.87803501 0.24143778 0
v 0.73885471 0.34878647 0
v 0.59932286 0.32859424 0
v 0.87128717 0.36335704 0
v 0.533849 0.10604315 0
v 1.00000012 0.12500001 0
v 1.00000012 0.25000003 0
v 1.00000012 0.37500006 0
v 0.45247209 0.30250445 0
v 0.50259113 0.20818004 0
vn 0 0 1
f 1//1 2//1 3//1
f 1//1 3//1 4//1
f 2//1 5//1 6//1
f 2//1 6//1 3//1
f 4//1 3//1 7//1
f 4//1 7//1 8//1
f 3//1 6//1 9//1
f 3//1 9//1 7//1
f 10//1 11//1 1//1
f 10//1 1//1 12//1
f 11//1 13//1 2//1
f 11//1 2//1 1//1
f 13//1 14//1 5//1
f 13//1 5//1 2//1
f 14//1 15//1 16//1
f 14//1 16//1 5//1
f 5//1 16//1 17//1
f 5//1 17//1 6//1
f 6//1 17//1 18//1
f 6//1 18//1 9//1
f 9//1 18//1 19//1
f 9//1 19//1 20//1
f 7//1 9//1 20//1
f 7//1 20//1 21//1
f 8//1 7//1 21//1
f 8//1 21//1 22//1
f 23//1 8//1 22//1
f 23//1 22//1 24//1
f 25//1 4//1 8//1
f 25//1 8//1 23//1
f 12//1 1//1 4//1
f 12//1 4//1 25//1
f 26//1 27//1 28//1
f 26//1 28//1 29//1
f 27//1 30//1 31//1
f 27//1 31//1 28//1
f 29//1 28//1 32//1
f 29//1 32//1 33//1
f 28//1 31//1 34//1
f 28//1 34//1 32//1
f 35//1 36//1 26//1
f 35//1 26//1 37//1
f 36//1 38//1 27//1
f 36//1 27//1 26//1
f 38//1 39//1 30//1
f 38//1 30//1 27//1
f 39//1 40//1 41//1
f 39//1 41//1 30//1
f 30//1 41//1 42//1
f 30//1 42//1 31//1
f 31//1 42//1 43//1
f 31//1 43//1 34//1
f 34//1 43//1 44//1
f 34//1 44//1 45//1
f 32//1 34//1 45//1
f 32//1 45//1 46//1
f 33//1 32//1 46//1
f 33//1 46//1 47//1
f 48//1 33//1 47//1
f 48//1 47//1 49//1
f 50//1 29//1 33//1
f 50//1 33//1 48//1
f 37//1 26//1 29//1
f 37//1 29//1 50//1
f 51//1 52//1 53//1
f 51//1 53//1 54//1
f 52//1 55//1 56//1
f 52//1 56//1 53//1
f 54//1 53//1 57//1
f 54//1 57//1 58//1
f 53//1 56//1 59//1
f 53//1 59//1 57//1
f 40//1 60//1 51//1
f 40//1 51//1 41//1
f 60//1 61//1 52//1
f 60//1 52//1 51//1
f 61//1 62//1 55//1
f 61//1 55//1 52//1
f 62//1 63//1 64//1
f 62//1 64//1 55//1
f 55//1 64//1 65//1
f 55//1 65//1 56//1
f 56//1 65//1 66//1
f 56//1 66//1 59//1
f 59//1 66//1 67//1
f 59//1 67//1 68//1
f 57//1 59//1 68//1
f 57//1 68//1 69//1
f 58//1 57//1 69//1
f 58//1 69//1 70//1
f 43//1 58//1 70//1
f 43//1 70//1 44//1
f 42//1 54//1 58//1
f 42//1 58//1 43//1
f 41//1 51//1 54//1
f 41//1 54//1 42//1
f 71//1 72//1 73//1
f 71//1 73//1 74//1
f 72//1 75//1 76//1
f 72//1 76//1 73//1
f 74//1 73//1 77//1
f 74//1 77//1 78//1
f 73//1 76//1 79//1
f 73//1 79//1 77//1
f 63//1 80//1 71//1
f 63//1 71//1 64//1
f 80//1 81//1 72//1
f 80//1 72//1 71//1
f 81//1 82//1 75//1
f 81//1 75//1 72//1
f 82//1 10//1 12//1
f 82//1 12//1 75//1
f 75//1 12//1 25//1
f 75//1 25//1 76//1
f 76//1 25//1 23//1
f 76//1 23//1 79//1
f 79//1 23//1 24//1
f 79//1 24//1 83//1
f 77//1 79//1 83//1
f 77//1 83//1 84//1
f 78//1 77//1 84//1
f 78//1 84//1 85//1
f 66//1 78//1 85//1
f 66//1 85//1 67//1
f 65//1 74//1 78//1
f 65//1 78//1 66//1
f 64//1 71//1 74//1
f 64//1 74//1 65//1
f 86//1 87//1 88//1
f 86//1 88//1 89//1
f 87//1 90//1 91//1
f 87//1 91//1 88//1
f 89//1 88//1 92//1
f 89//1 92//1 93//1
f 88//1 91//1 94//1
f 88//1 94//1 92//1
f 95//1 96//1 86//1
f 95//1 86//1 97//1
f 96//1 98//1 87//1
f 96//1 87//1 86//1
f 98//1 99//1 90//1
f 98//1 90//1 87//1
f 99//1 100//1 101//1
f 99//1 101//1 90//1
f 90//1 101//1 102//1
f 90//1 102//1 91//1
f 91//1 102//1 103//1
f 91//1 103//1 94//1
f 94//1 103//1 104//1
f 94//1 104//1 105//1
f 92//1 94//1 105//1
f 92//1 105//1 106//1
f 93//1 92//1 106//1
f 93//1 106//1 107//1
f 108//1 93//1 107//1
f 108//1 107//1 109//1
f 110//1 89//1 93//1
f 110//1 93//1 108//1
f 97//1 86//1 89//1
f 97//1 89//1 110//1
f 111//1 112//1 113//1
f 111//1 113//1 114//1
f 112//1 115//1 116//1
f 112//1 116//1 113//1
f 114//1 113//1 117//1
f 114//1 117//1 118//1
f 113//1 116//1 119//1
f 113//1 119//1 117//1
f 109//1 107//1 111//1
f 109//1 111//1 120//1
f 107//1 106//1 112//1
f 107//1 112//1 111//1
f 106//1 105//1 115//1
f 106//1 115//1 112//1
f 105//1 104//1 121//1
f 105//1 121//1 115//1
f 115//1 121//1 122//1
f 115//1 122//1 116//1
f 116//1 122//1 123//1
f 116//1 123//1 119//1
f 119//1 123//1 124//1
f 119//1 124//1 125//1
f 117//1 119//1 125//1
f 117//1 125//1 126//1
f 118//1 117//1 126//1
f 118//1 126//1 127//1
f 128//1 118//1 127//1
f 128//1 127//1 129//1
f 130//1 114//1 118//1
f 130//1 118//1 128//1
f 120//1 111//1 114//1
f 120//1 114//1 130//1
f 131//1 132//1 133//1
f 131//1 133//1 134//1
f 132//1 135//1 136//1
f 132//1 136//1 133//1
f 134//1 133//1 137//1
f 134//1 137//1 138//1
f 133//1 136//1 139//1
f 133//1 139//1 137//1
f 129//1 127//1 131//1
f 129//1 131//1 140//1
f 127//1 126//1 132//1
f 127//1 132//1 131//1
f 126//1 125//1 135//1
f 126//1 135//1 132//1
f 125//1 124//1 141//1
f 125//1 141//1 135//1
f 135//1 141//1 142//1
f 135//1 142//1 136//1
f 136//1 142//1 143//1
f 136//1 143//1 139//1
f 139//1 143//1 40//1
f 139//1 40//1 39//1
f 137//1 139//1 39//1
f 137//1 39//1 38//1
f 138//1 137//1 38//1
f 138//1 38//1 36//1
f 144//1 138//1 36//1
f 144//1 36//1 35//1
f 145//1 134//1 138//1
f 145//1 138//1 144//1
f 140//1 131//1 134//1
f 140//1 134//1 145//1
f 146//1 147//1 148//1
f 146//1 148//1 149//1
f 147//1 150//1 151//1
f 147//1 151//1 148//1
f 149//1 148//1 152//1
f 149//1 152//1 153//1
f 148//1 151//1 154//1
f 148//1 154//1 152//1
f 100//1 155//1 146//1
f 100//1 146//1 101//1
f 155//1 156//1 147//1
f 155//1 147//1 146//1
f 156//1 157//1 150//1
f 156//1 150//1 147//1
f 157//1 158//1 159//1
f 157//1 159//1 150//1
f 150//1 159//1 160//1
f 150//1 160//1 151//1
f 151//1 160//1 161//1
f 151//1 161//1 154//1
f 154//1 161//1 162//1
f 154//1 162//1 163//1
f 152//1 154//1 163//1
f 152//1 163//1 164//1
f 153//1 152//1 164//1
f 153//1 164//1 165//1
f 103//1 153//1 165//1
f 103//1 165//1 104//1
f 102//1 149//1 153//1
f 102//1 153//1 103//1
f 101//1 146//1 149//1
f 101//1 149//1 102//1
f 166//1 167//1 168//1
f 166//1 168//1 169//1
f 167//1 170//1 171//1
f 167//1 171//1 168//1
f 169//1 168//1 172//1
f 169//1 172//1 173//1
f 168//1 171//1 174//1
f 168//1 174//1 172//1
f 158//1 175//1 166//1
f 158//1 166//1 159//1
f 175//1 176//1 167//1
f 175//1 167//1 166//1
f 176//1 177//1 170//1
f 176//1 170//1 167//1
f 177//1 178//1 179//1
f 177//1 179//1 170//1
f 170//1 179//1 180//1
f 170//1 180//1 171//1
f 171//1 180//1 181//1
f 171//1 181//1 174//1
f 174//1 181//1 182//1
f 174//1 182//1 183//1
f 172//1 174//1 183//1
f 172//1 183//1 184//1
f 173//1 172//1 184//1
f 173//1 184//1 185//1
f 161//1 173//1 185//1
f 161//1 185//1 162//1
f 160//1 169//1 173//1
f 160//1 173//1 161//1
f 159//1 166//1 169//1
f 159//1 169//1 160//1
f 186//1 187//1 188//1
f 186//1 188//1 189//1
f 187//1 190//1 191//1
f 187//1 191//1 188//1
f 189//1 188//1 192//1
f 189//1 192//1 193//1
f 188//1 191//1 194//1
f 188//1 194//1 192//1
f 178//1 195//1 186//1
f 178//1 186//1 179//1
f 195//1 196//1 187//1
f 195//1 187//1 186//1
f 196//1 197//1 190//1
f 196//1 190//1 187//1
f 197//1 198//1 199//1
f 197//1 199//1 190//1
f 190//1 199//1 200//1
f 190//1 200//1 191//1
f 191//1 200//1 201//1
f 191//1 201//1 194//1
f 194//1 201//1 202//1
f 194//1 202//1 203//1
f 192//1 194//1 203//1
f 192//1 203//1 204//1
f 193//1 192//1 204//1
f 193//1 204//1 205//1
f 181//1 193//1 205//1
f 181//1 205//1 182//1
f 180//1 189//1 193//1
f 180//1 193//1 181//1
f 179//1 186//1 189//1
f 179//1 189//1 180//1
f 206//1 207//1 208//1
f 206//1 208//1 209//1
f 207//1 210//1 211//1
f 207//1 211//1 208//1
f 209//1 208//1 212//1
f 209//1 212//1 213//1
f 208//1 211//1 214//1
f 208//1 214//1 212//1
f 182//1 205//1 206//1
f 182//1 206//1 215//1
f 205//1 204//1 207//1
f 205//1 207//1 206//1
f 204//1 203//1 210//1
f 204//1 210//1 207//1
f 203//1 202//1 216//1
f 203//1 216//1 210//1
f 210//1 216//1 217//1
f 210//1 217//1 211//1
f 211//1 217//1 218//1
f 211//1 218//1 214//1
f 214//1 218//1 219//1
f 214//1 219//1 220//1
f 212//1 214//1 220//1
f 212//1 220//1 221//1
f 213//1 212//1 221//1
f 213//1 221//1 222//1
f 223//1 213//1 222//1
f 223//1 222//1 224//1
f 225//1 209//1 213//1
f 225//1 213//1 223//1
f 215//1 206//1 209//1
f 215//1 209//1 225//1
f 226//1 227//1 228//1
f 226//1 228//1 229//1
f 227//1 230//1 231//1
f 227//1 231//1 228//1
f 229//1 228//1 232//1
f 229//1 232//1 233//1
f 228//1 231//1 234//1
f 228//1 234//1 232//1
f 224//1 222//1 226//1
f 224//1 226//1 235//1
f 222//1 221//1 227//1
f 222//1 227//1 226//1
f 221//1 220//1 230//1
f 221//1 230//1 227//1
f 220//1 219//1 236//1
f 220//1 236//1 230//1
f 230//1 236//1 237//1
f 230//1 237//1 231//1
f 231//1 237//1 238//1
f 231//1 238//1 234//1
f 234//1 238//1 15//1
f 234//1 15//1 14//1
f 232//1 234//1 14//1
f 232//1 14//1 13//1
f 233//1 232//1 13//1
f 233//1 13//1 11//1
f 239//1 233//1 11//1
f 239//1 11//1 10//1
f 240//1 229//1 233//1
f 240//1 233//1 239//1
f 235//1 226//1 229//1
f 235//1 229//1 240//1
# Vertices: 240, normals: 1, texture coordinates: 0, faces: 384

